[Header]
FileType HTR
DataType HTRS
FileVersion 1
NumSegments 36
NumFrames 4
DataFrameRate 120
EulerRotationOrder ZYX
CalibrationUnits mm
RotationUnits Degrees
GlobalAxisofGravity Y
BoneLengthAxis Y
ScaleFactor 1.0
[SegmentNames&Hierarchy]
Hips	GLOBAL
Spine	Hips
Spine1	Spine
Spine2	Spine1
Spine3	Spine2
Neck	Spine3
Head	Neck
HeadEnd	Head
RightShoulder	Spine3
RightArm	RightShoulder
RightForeArm	RightArm
RightForeArmRoll	RightForeArm
RightHand	RightForeArmRoll
RightHandEnd	RightHand
R_FingersEnd	RightHandEnd
RightHandThumb1	RightHand
RightHandThumb2	RightHandThumb1
LeftShoulder	Spine3
LeftArm	LeftShoulder
LeftForeArm	LeftArm
LeftForeArmRoll	LeftForeArm
LeftHand	LeftForeArmRoll
LeftHandEnd	LeftHand
L_FingersEnd	LeftHandEnd
LeftHandThumb1	LeftHand
LeftHandThumb2	LeftHandThumb1
RightUpLeg	Hips
RightLeg	RightUpLeg
RightFoot	RightLeg
RightToeBase	RightFoot
RightToeBaseEnd	RightToeBase
LeftUpLeg	Hips
LeftLeg	LeftUpLeg
LeftFoot	LeftLeg
LeftToeBase	LeftFoot
LeftToeBaseEnd	LeftToeBase
[BasePosition]
Hips	0	0	0	0	0	0	1
Spine	0	0	0	-10	-0	0	1
Spine1	0	0	0	5	0	0	1
Spine2	0	0	0	5	0	0	1
Spine3	0	0	0	0	0	0	1
Neck	0	0	0	10	0	0	1
Head	0	0	0	-10	-0	0	1
HeadEnd	0	0	0	0	0	0	1
RightShoulder	0	0	0	-180	-0	-180	1
RightArm	0	0	0	0	0	0	1
RightForeArm	0	0	0	0	0	0	1
RightForeArmRoll	0	0	0	0	0	0	1
RightHand	0	0	0	0	0	0	1
RightHandEnd	0	0	0	-90	-0	0	1
R_FingersEnd	0	0	0	0	0	0	1
RightHandThumb1	0	0	0	170	-0	-15	1
RightHandThumb2	0	0	0	0	0	0	1
LeftShoulder	0	0	0	0	0	0	1
LeftArm	0	0	0	0	0	0	1
LeftForeArm	0	0	0	0	0	0	1
LeftForeArmRoll	0	0	0	0	0	0	1
LeftHand	0	0	0	0	0	0	1
LeftHandEnd	0	0	0	90	0	0	1
L_FingersEnd	0	0	0	0	0	0	1
LeftHandThumb1	0	0	0	170	-0	-15	1
LeftHandThumb2	0	0	0	0	0	0	1
RightUpLeg	0	0	0	-0	90	0	1
RightLeg	0	0	0	0	0	0	1
RightFoot	0	0	0	0	-0	-70	1
RightToeBase	0	0	0	0	-0	-20	1
RightToeBaseEnd	0	0	0	0	0	0	1
LeftUpLeg	0	0	0	-0	90	0	1
LeftLeg	0	0	0	0	0	0	1
LeftFoot	0	0	0	0	-0	-70	1
LeftToeBase	0	0	0	0	-0	-20	1
LeftToeBaseEnd	0	0	0	0	0	0	1
[Hips]
91	-6.492097855	970.9147949	-21.02077293	-88.88279724	0.1073672846	0.1434115171	1.0
92	-6.500799179	970.9191895	-21.08648682	-88.8820343	0.09777594358	0.1426269561	1.0
93	-6.499219418	970.9224854	-21.18917656	-88.87899017	0.08731618524	0.1435929835	1.0
94	-6.493083954	970.9266357	-21.30552673	-88.87162781	0.07457779348	0.1479748785	1.0
[Spine]
91	0	44.87670517	67.31505585	-0.1971757859	0.334504813	0.07122188807	1.0
92	0	44.87670517	67.31505585	-0.1991928518	0.332539022	0.07060551643	1.0
93	0	44.87670517	67.31505585	-0.2016124278	0.3317770064	0.07016239315	1.0
94	0	44.87670517	67.31505585	-0.2054566592	0.3326334357	0.06977948546	1.0
[Spine1]
91	0	0	89.75341034	-0.5615430474	0.0126565937	0.0009593669092	1.0
92	0	0	89.75341034	-0.5658717155	0.01395511813	0.0009597316966	1.0
93	0	0	89.75341034	-0.5702831745	0.01545618288	0.001065322431	1.0
94	0	0	89.75341034	-0.5762475729	0.01696347073	0.001180679537	1.0
[Spine2]
91	0	0	89.75341034	1.420518637	0.4735277295	0.3616732657	1.0
92	0	0	89.75341034	1.428668022	0.4679479599	0.3578416407	1.0
93	0	0	89.75341034	1.434773207	0.4628879428	0.356508255	1.0
94	0	0	89.75341034	1.440385342	0.458882153	0.357776165	1.0
[Spine3]
91	0	0	89.75341034	0.1153485849	-0.4152196348	-0.06478898227	1.0
92	0	0	89.75341034	0.1170644164	-0.4143247306	-0.06314089894	1.0
93	0	0	89.75341034	0.1186320707	-0.4136763215	-0.06108831614	1.0
94	0	0	89.75341034	0.1207373068	-0.4124264121	-0.0592302978	1.0
[Neck]
91	0	-33.65752792	235.6027069	-1.101276636	-0.2363482267	-0.1660346091	1.0
92	0	-33.65752792	235.6027069	-1.100716591	-0.2330946326	-0.1709124446	1.0
93	0	-33.65752792	235.6027069	-1.100196123	-0.2306447625	-0.1753288507	1.0
94	0	-33.65752792	235.6027069	-1.100891709	-0.2269485891	-0.1777929813	1.0
[Head]
91	0	0	123.4109421	-0.8219996691	-0.1550066918	-1.013602853	1.0
92	0	0	123.4109421	-0.8241071701	-0.1601808965	-1.008189201	1.0
93	0	0	123.4109421	-0.8262403011	-0.1656981409	-1.005219936	1.0
94	0	0	123.4109421	-0.830275774	-0.1742354333	-1.004653931	1.0
[HeadEnd]
91	0	0	145.2883301	0	0	0	1.0
92	0	0	145.2883301	0	0	0	1.0
93	0	0	145.2883301	0	0	0	1.0
94	0	0	145.2883301	0	0	0	1.0
[RightShoulder]
91	-30.74827576	-51.24713135	166.0407104	-4.434679985	-6.138926506	0.9793335199	1.0
92	-30.74827576	-51.24713135	166.0407104	-4.439967155	-6.136738777	0.9750636816	1.0
93	-30.74827576	-51.24713135	166.0407104	-4.444732189	-6.137187958	0.9730915427	1.0
94	-30.74827576	-51.24713135	166.0407104	-4.449284077	-6.141888142	0.9723235965	1.0
[RightArm]
91	152.7164459	0	0	-24.94097137	-69.36697388	4.433527946	1.0
92	152.7164459	0	0	-24.90746307	-69.36132813	4.404364586	1.0
93	152.7164459	0	0	-24.88258362	-69.35214996	4.376736641	1.0
94	152.7164459	0	0	-24.86177826	-69.33792114	4.338890076	1.0
[RightForeArm]
91	297.8946228	0	0	0	0	-31.25726509	1.0
92	297.8946228	0	0	0	0	-31.24222374	1.0
93	297.8946228	0	0	0	0	-31.22645569	1.0
94	297.8946228	0	0	0	0	-31.20666885	1.0
[RightForeArmRoll]
91	122.9768982	0	0	4.213497162	0	0	1.0
92	122.9768982	0	0	4.217722893	0	0	1.0
93	122.9768982	0	0	4.229691029	0	0	1.0
94	122.9768982	0	0	4.24125433	0	0	1.0
[RightHand]
91	127.1009369	0	0	-5.878985576e-006	8.028516769	-2.990431309	1.0
92	127.1009369	0	0	-6.228731763e-006	8.024835587	-2.984022141	1.0
93	127.1009369	0	0	-7.45678426e-006	8.032676697	-2.986306429	1.0
94	127.1009369	0	0	-1.069522841e-005	8.062281609	-2.994003773	1.0
[RightHandEnd]
91	72.05677795	0	0	0	0	0	1.0
92	72.05677795	0	0	0	0	0	1.0
93	72.05677795	0	0	0	0	0	1.0
94	72.05677795	0	0	0	0	0	1.0
[R_FingersEnd]
91	72.05677795	0	0	0	0	0	1.0
92	72.05677795	0	0	0	0	0	1.0
93	72.05677795	0	0	0	0	0	1.0
94	72.05677795	0	0	0	0	0	1.0
[RightHandThumb1]
91	28.82271004	-48.03784943	19.2151413	0	0	0	1.0
92	28.82271004	-48.03784943	19.2151413	0	0	0	1.0
93	28.82271004	-48.03784943	19.2151413	0	0	0	1.0
94	28.82271004	-48.03784943	19.2151413	0	0	0	1.0
[RightHandThumb2]
91	72.05677795	0	0	0	0	0	1.0
92	72.05677795	0	0	0	0	0	1.0
93	72.05677795	0	0	0	0	0	1.0
94	72.05677795	0	0	0	0	0	1.0
[LeftShoulder]
91	30.74827576	-51.24713135	166.0407104	5.413782597	5.983653069	2.950566053	1.0
92	30.74827576	-51.24713135	166.0407104	5.421310902	5.994362831	2.959752083	1.0
93	30.74827576	-51.24713135	166.0407104	5.429297924	6.002025127	2.965866804	1.0
94	30.74827576	-51.24713135	166.0407104	5.436406612	6.003162384	2.971069336	1.0
[LeftArm]
91	152.7164459	0	0	3.862381935	68.84046173	-34.17961884	1.0
92	152.7164459	0	0	3.907548189	68.83422852	-34.18265915	1.0
93	152.7164459	0	0	3.934521437	68.8302536	-34.1951561	1.0
94	152.7164459	0	0	3.930627823	68.83041382	-34.22246933	1.0
[LeftForeArm]
91	297.8946228	0	0	0	0	-19.19542503	1.0
92	297.8946228	0	0	0	0	-19.19033432	1.0
93	297.8946228	0	0	0	0	-19.18476677	1.0
94	297.8946228	0	0	0	0	-19.18023682	1.0
[LeftForeArmRoll]
91	122.9768982	0	0	-5.402209282	0	0	1.0
92	122.9768982	0	0	-5.490244865	0	0	1.0
93	122.9768982	0	0	-5.5337286	0	0	1.0
94	122.9768982	0	0	-5.503487587	0	0	1.0
[LeftHand]
91	127.1009369	0	0	-0.001029763371	-21.07152939	0.5037866831	1.0
92	127.1009369	0	0	-1.718127169e-005	-21.16818619	0.4392654598	1.0
93	127.1009369	0	0	0.0006016526604	-21.23598099	0.4064308703	1.0
94	127.1009369	0	0	0.0006342948182	-21.25186729	0.4277611077	1.0
[LeftHandEnd]
91	72.05677795	0	0	0	0	0	1.0
92	72.05677795	0	0	0	0	0	1.0
93	72.05677795	0	0	0	0	0	1.0
94	72.05677795	0	0	0	0	0	1.0
[L_FingersEnd]
91	72.05677795	0	0	0	0	0	1.0
92	72.05677795	0	0	0	0	0	1.0
93	72.05677795	0	0	0	0	0	1.0
94	72.05677795	0	0	0	0	0	1.0
[LeftHandThumb1]
91	28.82271004	-48.03784943	-19.2151413	0	0	0	1.0
92	28.82271004	-48.03784943	-19.2151413	0	0	0	1.0
93	28.82271004	-48.03784943	-19.2151413	0	0	0	1.0
94	28.82271004	-48.03784943	-19.2151413	0	0	0	1.0
[LeftHandThumb2]
91	72.05677795	0	0	0	0	0	1.0
92	72.05677795	0	0	0	0	0	1.0
93	72.05677795	0	0	0	0	0	1.0
94	72.05677795	0	0	0	0	0	1.0
[RightUpLeg]
91	-91.21989441	0	-26.64850616	9.452367783	4.177985191	-0.8345919251	1.0
92	-91.21989441	0	-26.64850616	9.458185196	4.176745892	-0.8429597616	1.0
93	-91.21989441	0	-26.64850616	9.461894989	4.178592205	-0.8540739417	1.0
94	-91.21989441	0	-26.64850616	9.46284008	4.186523438	-0.8715385199	1.0
[RightLeg]
91	402.8824463	0	0	0	0	14.53011799	1.0
92	402.8824463	0	0	0	0	14.53601074	1.0
93	402.8824463	0	0	0	0	14.54094028	1.0
94	402.8824463	0	0	0	0	14.54605961	1.0
[RightFoot]
91	435.9781189	0	0	4.439284325	-1.73250556	-14.86556625	1.0
92	435.9781189	0	0	4.435955524	-1.737600684	-14.85975361	1.0
93	435.9781189	0	0	4.434004307	-1.745729446	-14.85322571	1.0
94	435.9781189	0	0	4.433766842	-1.759638071	-14.84529781	1.0
[RightToeBase]
91	183.1846619	0	0	0	0	0.9043930769	1.0
92	183.1846619	0	0	0	0	0.928019166	1.0
93	183.1846619	0	0	0	0	0.9390693307	1.0
94	183.1846619	0	0	0	0	0.9300752878	1.0
[RightToeBaseEnd]
91	73.79586792	0	0	0	0	0	1.0
92	73.79586792	0	0	0	0	0	1.0
93	73.79586792	0	0	0	0	0	1.0
94	73.79586792	0	0	0	0	0	1.0
[LeftUpLeg]
91	91.21989441	0	-26.64850616	0.76519835	-5.191234589	0.1787623912	1.0
92	91.21989441	0	-26.64850616	0.7700750232	-5.190495014	0.1809659898	1.0
93	91.21989441	0	-26.64850616	0.7740368843	-5.187375546	0.1799776703	1.0
94	91.21989441	0	-26.64850616	0.7750311494	-5.179485321	0.1728037447	1.0
[LeftLeg]
91	402.8824463	0	0	0	0	11.20815563	1.0
92	402.8824463	0	0	0	0	11.19928265	1.0
93	402.8824463	0	0	0	0	11.19107437	1.0
94	402.8824463	0	0	0	0	11.18433762	1.0
[LeftFoot]
91	435.9781189	0	0	-7.980799675	-0.2628670335	-12.62257195	1.0
92	435.9781189	0	0	-7.983075142	-0.2771813869	-12.61507607	1.0
93	435.9781189	0	0	-7.984093666	-0.2928300202	-12.60771275	1.0
94	435.9781189	0	0	-7.98193264	-0.310569346	-12.60046196	1.0
[LeftToeBase]
91	183.1846619	0	0	0	0	0.8358681202	1.0
92	183.1846619	0	0	0	0	0.8234695196	1.0
93	183.1846619	0	0	0	0	0.814117372	1.0
94	183.1846619	0	0	0	0	0.8087249398	1.0
[LeftToeBaseEnd]
91	73.79586792	0	0	0	0	0	1.0
92	73.79586792	0	0	0	0	0	1.0
93	73.79586792	0	0	0	0	0	1.0
94	73.79586792	0	0	0	0	0	1.0
[EndOfFile]
